<mxfile host="65bd71144e">
    <diagram id="Cht4ok0Wk56tueQbOjkq" name="Page-1">
        <mxGraphModel dx="1054" dy="1786" grid="1" gridSize="10" guides="1" tooltips="1" connect="1" arrows="1" fold="1" page="1" pageScale="1" pageWidth="827" pageHeight="1169" math="0" shadow="0">
            <root>
                <mxCell id="0"/>
                <mxCell id="1" parent="0"/>
                <mxCell id="16" style="edgeStyle=none;html=1;" edge="1" parent="1" source="2" target="3">
                    <mxGeometry relative="1" as="geometry"/>
                </mxCell>
                <mxCell id="2" value="后端" style="rounded=0;whiteSpace=wrap;html=1;" vertex="1" parent="1">
                    <mxGeometry x="160" y="200" width="120" height="60" as="geometry"/>
                </mxCell>
                <mxCell id="15" style="edgeStyle=none;html=1;" edge="1" parent="1" source="3" target="2">
                    <mxGeometry relative="1" as="geometry"/>
                </mxCell>
                <mxCell id="3" value="网关" style="rounded=0;whiteSpace=wrap;html=1;" vertex="1" parent="1">
                    <mxGeometry x="520" y="200" width="120" height="60" as="geometry"/>
                </mxCell>
                <mxCell id="8" style="edgeStyle=none;html=1;entryX=1;entryY=0.5;entryDx=0;entryDy=0;" edge="1" parent="1" source="4" target="3">
                    <mxGeometry relative="1" as="geometry"/>
                </mxCell>
                <mxCell id="4" value="嵌入式设备" style="rounded=0;whiteSpace=wrap;html=1;" vertex="1" parent="1">
                    <mxGeometry x="880" y="80" width="120" height="60" as="geometry"/>
                </mxCell>
                <mxCell id="9" style="edgeStyle=none;html=1;" edge="1" parent="1" source="5" target="3">
                    <mxGeometry relative="1" as="geometry">
                        <mxPoint x="640" y="230" as="targetPoint"/>
                    </mxGeometry>
                </mxCell>
                <mxCell id="5" value="嵌入式设备" style="rounded=0;whiteSpace=wrap;html=1;" vertex="1" parent="1">
                    <mxGeometry x="880" y="200" width="120" height="60" as="geometry"/>
                </mxCell>
                <mxCell id="7" style="edgeStyle=none;html=1;entryX=1;entryY=0.5;entryDx=0;entryDy=0;" edge="1" parent="1" source="6" target="3">
                    <mxGeometry relative="1" as="geometry"/>
                </mxCell>
                <mxCell id="6" value="嵌入式设备" style="rounded=0;whiteSpace=wrap;html=1;" vertex="1" parent="1">
                    <mxGeometry x="880" y="-40" width="120" height="60" as="geometry"/>
                </mxCell>
                <mxCell id="21" value="接口和功能" style="rounded=0;whiteSpace=wrap;html=1;" vertex="1" parent="1">
                    <mxGeometry x="80" y="320" width="280" height="20" as="geometry"/>
                </mxCell>
                <mxCell id="22" value="/device : 注册设备. 查询设备" style="rounded=0;whiteSpace=wrap;html=1;" vertex="1" parent="1">
                    <mxGeometry x="80" y="340" width="280" height="60" as="geometry"/>
                </mxCell>
                <mxCell id="23" value="/data : 插入数据. 查询数据" style="rounded=0;whiteSpace=wrap;html=1;" vertex="1" parent="1">
                    <mxGeometry x="80" y="400" width="280" height="70" as="geometry"/>
                </mxCell>
                <mxCell id="24" value="接口和功能" style="rounded=0;whiteSpace=wrap;html=1;" vertex="1" parent="1">
                    <mxGeometry x="440" y="320" width="280" height="20" as="geometry"/>
                </mxCell>
                <mxCell id="25" value="/device : 转发下游注册设备请求(批量)" style="rounded=0;whiteSpace=wrap;html=1;" vertex="1" parent="1">
                    <mxGeometry x="440" y="340" width="280" height="60" as="geometry"/>
                </mxCell>
                <mxCell id="26" value="/rashome/device/&amp;lt;name&amp;gt;/data :&amp;nbsp;&lt;br&gt;订阅 topic, 通过 http 发送数据" style="rounded=0;whiteSpace=wrap;html=1;" vertex="1" parent="1">
                    <mxGeometry x="440" y="400" width="280" height="70" as="geometry"/>
                </mxCell>
                <mxCell id="27" value="功能" style="rounded=0;whiteSpace=wrap;html=1;" vertex="1" parent="1">
                    <mxGeometry x="800" y="320" width="280" height="20" as="geometry"/>
                </mxCell>
                <mxCell id="28" value="1. 发送请求注册设备(HTTP)&lt;br&gt;&lt;br&gt;2. 发送数据(MQTT)&lt;br&gt;&lt;br&gt;3. 监听健康检查动作(可选)&lt;br&gt;&lt;br&gt;4. 监听关闭设备动作(可选)" style="rounded=0;whiteSpace=wrap;html=1;" vertex="1" parent="1">
                    <mxGeometry x="800" y="340" width="280" height="200" as="geometry"/>
                </mxCell>
                <mxCell id="30" value="/action : 发送指令到设备" style="rounded=0;whiteSpace=wrap;html=1;" vertex="1" parent="1">
                    <mxGeometry x="80" y="470" width="280" height="70" as="geometry"/>
                </mxCell>
                <mxCell id="31" value="/action -&amp;gt; /rashome/device/&amp;lt;name&amp;gt;/command :&lt;br&gt;转发指令到对应 topic" style="rounded=0;whiteSpace=wrap;html=1;" vertex="1" parent="1">
                    <mxGeometry x="440" y="470" width="280" height="70" as="geometry"/>
                </mxCell>
            </root>
        </mxGraphModel>
    </diagram>
</mxfile>